<svg width="442" height="327" viewBox="0 0 442 327" fill="none" xmlns="http://www.w3.org/2000/svg">
<g clip-path="url(#clip0_74_778)">
<path d="M10.0322 302.137C12.1372 302.879 14.3973 303.065 16.5948 302.677C18.7922 302.289 20.853 301.34 22.5784 299.922C26.9727 296.225 28.3507 290.136 29.4715 284.497L32.7872 267.815L25.8454 272.606C20.8529 276.052 15.7483 279.608 12.2919 284.599C8.83542 289.589 7.32748 296.402 10.1038 301.802" fill="#E8A1A3"/>
<path d="M11.104 323.494C10.2302 317.114 9.33127 310.651 9.94562 304.202C10.4901 298.475 12.2334 292.882 15.7825 288.294C17.6663 285.864 19.9586 283.781 22.5563 282.141C23.2336 281.713 23.857 282.788 23.1827 283.215C18.6878 286.062 15.2112 290.267 13.254 295.222C11.0924 300.733 10.7453 306.74 11.1176 312.594C11.3427 316.134 11.8209 319.65 12.3012 323.163C12.3391 323.322 12.3155 323.489 12.235 323.631C12.1545 323.773 12.0232 323.879 11.8677 323.928C11.709 323.971 11.5399 323.949 11.397 323.868C11.2541 323.787 11.149 323.652 11.1044 323.494L11.104 323.494Z" fill="#F2F2F2"/>
<path d="M17.3931 313.256C18.2957 314.632 19.5367 315.751 20.9963 316.507C22.4559 317.262 24.085 317.628 25.7266 317.569C29.9463 317.368 33.4627 314.417 36.6279 311.615L45.992 303.328L39.7948 303.031C35.338 302.817 30.7662 302.616 26.5213 303.995C22.2763 305.374 18.3615 308.688 17.5854 313.093" fill="#E8A1A3"/>
<path d="M8.63436 327.162C12.8408 319.702 17.7196 311.411 26.4378 308.761C28.8617 308.026 31.4033 307.763 33.9257 307.986C34.7209 308.055 34.5223 309.283 33.7288 309.214C29.5005 308.863 25.2803 309.982 21.7788 312.383C18.4092 314.682 15.7855 317.878 13.5652 321.268C12.205 323.344 10.9867 325.508 9.76831 327.669C9.37901 328.36 8.24052 327.861 8.63436 327.162Z" fill="#F2F2F2"/>
<path d="M302.21 169.664H117.634V327.244H302.21V169.664Z" fill="white"/>
<path d="M232.994 200.319H186.85V327.244H232.994V200.319Z" fill="#6C63FF"/>
<path d="M232.994 200.319H186.85V327.244H232.994V200.319Z" fill="#D36466"/>
<path opacity="0.2" d="M118.17 181.227V206.793L302.21 218.605L301.668 187.058L118.17 181.227Z" fill="black"/>
<path d="M312.942 155.143H106.903V200.319H312.942V155.143Z" fill="white"/>
<path d="M313.478 200.858H106.366V154.605H313.478V200.858ZM107.439 199.782H312.405V155.681H107.439V199.782Z" fill="#3F3D56"/>
<path d="M232.994 150.841H186.85V199.782H232.994V150.841Z" fill="#D36466"/>
<path d="M204.981 108.168C217.162 126.266 205.686 155.375 205.686 155.375C205.686 155.375 174.46 155.14 162.28 137.042C150.099 118.944 161.575 89.835 161.575 89.835C161.575 89.835 192.801 90.0696 204.981 108.168Z" fill="#D36466"/>
<path d="M210.57 108.168C198.39 126.266 209.866 155.375 209.866 155.375C209.866 155.375 241.091 155.14 253.272 137.042C265.452 118.944 253.976 89.835 253.976 89.835C253.976 89.835 222.751 90.0696 210.57 108.168Z" fill="#D36466"/>
<path d="M177.728 121.798C180.395 121.798 182.557 119.631 182.557 116.958C182.557 114.284 180.395 112.117 177.728 112.117C175.061 112.117 172.899 114.284 172.899 116.958C172.899 119.631 175.061 121.798 177.728 121.798Z" fill="#3F3D56"/>
<path d="M206.703 170.739C209.37 170.739 211.532 168.572 211.532 165.899C211.532 163.226 209.37 161.059 206.703 161.059C204.036 161.059 201.874 163.226 201.874 165.899C201.874 168.572 204.036 170.739 206.703 170.739Z" fill="#3F3D56"/>
<path d="M206.703 276.69C209.37 276.69 211.532 274.522 211.532 271.849C211.532 269.176 209.37 267.009 206.703 267.009C204.036 267.009 201.874 269.176 201.874 271.849C201.874 274.522 204.036 276.69 206.703 276.69Z" fill="#3F3D56"/>
<path d="M190.606 137.932C192.384 137.932 193.825 136.488 193.825 134.705C193.825 132.923 192.384 131.479 190.606 131.479C188.828 131.479 187.387 132.923 187.387 134.705C187.387 136.488 188.828 137.932 190.606 137.932Z" fill="#3F3D56"/>
<path d="M238.896 110.505C240.674 110.505 242.115 109.06 242.115 107.278C242.115 105.496 240.674 104.051 238.896 104.051C237.118 104.051 235.677 105.496 235.677 107.278C235.677 109.06 237.118 110.505 238.896 110.505Z" fill="#3F3D56"/>
<path d="M217.97 186.337C219.748 186.337 221.19 184.892 221.19 183.11C221.19 181.328 219.748 179.883 217.97 179.883C216.192 179.883 214.751 181.328 214.751 183.11C214.751 184.892 216.192 186.337 217.97 186.337Z" fill="#3F3D56"/>
<path d="M198.654 228.286C200.432 228.286 201.874 226.841 201.874 225.059C201.874 223.277 200.432 221.832 198.654 221.832C196.876 221.832 195.435 223.277 195.435 225.059C195.435 226.841 196.876 228.286 198.654 228.286Z" fill="#3F3D56"/>
<path d="M215.288 242.807C217.066 242.807 218.507 241.363 218.507 239.58C218.507 237.798 217.066 236.354 215.288 236.354C213.51 236.354 212.068 237.798 212.068 239.58C212.068 241.363 213.51 242.807 215.288 242.807Z" fill="#3F3D56"/>
<path d="M211.532 303.58C213.31 303.58 214.751 302.135 214.751 300.353C214.751 298.571 213.31 297.126 211.532 297.126C209.754 297.126 208.312 298.571 208.312 300.353C208.312 302.135 209.754 303.58 211.532 303.58Z" fill="#3F3D56"/>
<path d="M410.077 321.303L404.189 321.303L401.388 298.539L410.078 298.54L410.077 321.303Z" fill="#FFB7B7"/>
<path d="M411.578 327.024L392.593 327.023V326.783C392.593 324.818 393.372 322.934 394.758 321.545C396.144 320.156 398.023 319.376 399.983 319.376L411.579 319.376L411.578 327.024Z" fill="#2F2E41"/>
<path d="M424.457 321.303L430.345 321.303L433.146 298.539L424.456 298.54L424.457 321.303Z" fill="#FFB7B7"/>
<path d="M422.956 319.376L434.551 319.376C436.511 319.376 438.391 320.156 439.776 321.545C441.162 322.934 441.941 324.818 441.941 326.783V327.023L422.956 327.024L422.956 319.376Z" fill="#2F2E41"/>
<path d="M408.768 143.412C411.297 138.311 409.221 132.12 404.131 129.585C399.041 127.05 392.865 129.131 390.336 134.233C387.807 139.335 389.883 145.526 394.973 148.06C400.063 150.595 406.239 148.514 408.768 143.412Z" fill="#FFB7B7"/>
<path d="M391.974 209.784C391.974 209.784 388.724 223.357 390.349 229.871C391.974 236.386 396.849 280.904 396.849 280.904L400.098 316.193L413.098 317.279L411.473 276.018L413.098 240.187L422.305 274.932V316.316L436.092 316.859L436.388 262.988C436.388 262.988 437.471 220.642 430.43 215.213C423.389 209.784 422.305 208.698 422.305 208.698L391.974 209.784Z" fill="#2F2E41"/>
<path d="M411.598 150.065L423.93 156.58L425.555 213.042C425.555 213.042 418.514 208.699 407.681 214.128C396.849 219.557 389.808 215.756 389.808 215.756L396.307 191.326L393.599 158.752L397.473 155.228L411.598 150.065Z" fill="#CBCBCB"/>
<path d="M397.474 154.2L395.224 156.037C395.224 156.037 381.141 163.095 380.6 167.981L390.349 194.583C390.349 194.583 393.057 200.555 390.891 202.727C388.724 204.898 386.558 210.327 387.099 213.042C387.641 215.756 383.849 227.157 388.182 227.157C392.516 227.157 402.807 201.098 402.265 190.783C401.723 180.468 401.348 153.449 397.474 154.2Z" fill="#2F2E41"/>
<path d="M406.941 150.677L411.902 149.85C411.902 149.85 430.318 154.736 433.026 162.879L425.443 181.881C425.443 181.881 430.86 216.626 429.235 216.626H427.61C427.61 216.626 431.943 219.884 429.235 220.97C426.526 222.055 420.027 230.742 418.402 226.942C416.777 223.141 407.028 178.08 408.111 168.308C409.194 158.536 405.979 151.701 406.941 150.677Z" fill="#2F2E41"/>
<path d="M409.095 128.723L409.577 127.751L407.151 126.543C407.151 126.543 404.476 122.18 399.634 123.406C394.793 124.632 392.615 125.366 392.615 125.366L390.196 126.586L391.41 127.797L389.232 128.531L390.687 129.255L388.994 130.231L389.905 135.231C389.905 135.231 391.419 131.439 394.329 132.888C397.24 134.338 402.563 132.139 402.563 132.139L407.188 141.111C407.188 141.111 408.142 137.966 409.843 138.804C409.843 138.804 414.189 131.867 409.095 128.723Z" fill="#2F2E41"/>
<path d="M424.16 223.988C423.892 223.333 423.771 222.628 423.805 221.921C423.839 221.214 424.027 220.523 424.356 219.897C424.685 219.271 425.147 218.725 425.71 218.297C426.272 217.869 426.921 217.57 427.612 217.421L429.696 200.347L436.49 206.138L433.469 221.465C433.642 222.643 433.377 223.845 432.725 224.841C432.074 225.838 431.08 226.56 429.932 226.871C428.785 227.182 427.564 227.06 426.5 226.529C425.436 225.998 424.603 225.094 424.16 223.988Z" fill="#FFB7B7"/>
<path d="M395.103 222.813C395.3 222.134 395.346 221.419 395.237 220.72C395.129 220.021 394.869 219.354 394.475 218.766C394.082 218.179 393.564 217.685 392.96 217.319C392.355 216.954 391.678 216.725 390.976 216.65L387.097 199.894L380.954 206.374L385.58 221.293C385.532 222.484 385.923 223.65 386.676 224.572C387.429 225.493 388.494 226.106 389.668 226.293C390.842 226.481 392.043 226.23 393.045 225.589C394.047 224.947 394.779 223.96 395.103 222.813Z" fill="#FFB7B7"/>
<path d="M424.421 158.455C424.421 158.455 431.462 155.74 433.629 163.884C435.795 172.027 438.504 188.314 438.504 188.314C438.638 197.371 438.158 197.371 438.504 206.23L436.879 214.374L427.671 213.288L428.073 192.557L423.338 171.484L424.421 158.455Z" fill="#2F2E41"/>
<path d="M385.474 164.724L382.136 165.082C382.136 165.082 378.975 167.438 378.975 172.867C378.975 178.296 378.433 194.583 378.433 194.583C378.433 194.583 378.126 194.964 380.6 208.699C381.805 215.393 383.889 218.552 383.889 218.552L390.613 212.294L389.807 196.212L391.974 187.525L385.474 164.724Z" fill="#2F2E41"/>
<path d="M111.757 167.924C118.284 167.924 123.576 162.62 123.576 156.077C123.576 149.535 118.284 144.23 111.757 144.23C105.229 144.23 99.9375 149.535 99.9375 156.077C99.9375 162.62 105.229 167.924 111.757 167.924Z" fill="#FFB8B8"/>
<path d="M107.489 226.177C107.34 226.177 107.191 226.171 107.041 226.158C106.297 226.096 105.575 225.877 104.922 225.515C104.269 225.154 103.7 224.658 103.251 224.061C102.803 223.464 102.485 222.778 102.319 222.049C102.153 221.32 102.143 220.564 102.289 219.831C102.323 219.661 102.366 219.492 102.419 219.327L84.9744 198.647C84.406 197.968 84.0712 197.123 84.0197 196.238C83.9682 195.353 84.2026 194.475 84.6883 193.735L84.72 193.696L100.422 178.177C101.279 177.33 102.437 176.859 103.641 176.867C104.844 176.876 105.995 177.363 106.841 178.223C107.686 179.082 108.156 180.242 108.147 181.449C108.139 182.655 107.653 183.809 106.795 184.656C106.776 184.676 106.756 184.695 106.736 184.714L95.3634 195.551L107.813 215.58C108.049 215.592 108.284 215.621 108.515 215.666C109.803 215.924 110.95 216.652 111.732 217.709C112.514 218.766 112.877 220.077 112.749 221.387C112.621 222.697 112.012 223.913 111.04 224.798C110.068 225.683 108.802 226.175 107.489 226.177Z" fill="#FFB8B8"/>
<path d="M131.223 320.956H137.123L139.929 298.147L131.222 298.148L131.223 320.956Z" fill="#FFB8B8"/>
<path d="M129.718 319.026L141.336 319.025C143.3 319.025 145.184 319.807 146.572 321.199C147.961 322.591 148.741 324.478 148.741 326.447V326.688L129.718 326.689L129.718 319.026Z" fill="#2F2E41"/>
<path d="M72.5835 312.78L77.6529 315.805L91.7065 297.647L84.2252 293.182L72.5835 312.78Z" fill="#FFB8B8"/>
<path d="M72.2762 310.35L82.2592 316.307C83.9464 317.314 85.1659 318.952 85.6486 320.86C86.1313 322.768 85.8381 324.79 84.8334 326.481L84.7102 326.688L68.3652 316.934L72.2762 310.35Z" fill="#2F2E41"/>
<path d="M138.515 312.9H131.908C131.374 312.901 130.857 312.703 130.46 312.344C130.062 311.986 129.811 311.492 129.755 310.959L123.095 248.207C123.078 248.049 123.01 247.901 122.901 247.786C122.792 247.671 122.648 247.595 122.492 247.57C122.335 247.545 122.175 247.572 122.035 247.647C121.896 247.722 121.785 247.841 121.719 247.986L109.704 274.653L88.4327 309.421C88.1573 309.866 87.7311 310.198 87.2319 310.354C86.7328 310.51 86.1941 310.481 85.7145 310.272L77.2166 306.525C76.9356 306.401 76.6842 306.218 76.4789 305.989C76.2736 305.76 76.1191 305.491 76.0258 305.197C75.9325 304.904 75.9024 304.595 75.9376 304.289C75.9727 303.983 76.0723 303.688 76.2298 303.424L95.7844 270.605L101.782 242.953C99.8954 230.961 107.982 213.133 108.064 212.954L108.104 212.867L130.377 204.141L130.489 204.278C139.273 233.171 144.626 264.266 140.673 310.911C140.625 311.453 140.376 311.956 139.977 312.324C139.578 312.691 139.057 312.897 138.515 312.9Z" fill="#2F2E41"/>
<path d="M107.206 215.788L107.102 215.57C107.053 215.465 102.1 204.995 98.2821 193.804C97.5484 191.64 97.271 189.347 97.4675 187.07C97.6641 184.793 98.3303 182.582 99.424 180.576C100.532 178.55 102.047 176.776 103.875 175.368C105.702 173.959 107.802 172.947 110.04 172.394C113.926 171.46 118.017 171.957 121.568 173.793C125.118 175.63 127.893 178.684 129.386 182.399C132.414 189.99 131.449 198.092 130.541 204.464L130.523 204.592L130.407 204.647L107.206 215.788Z" fill="#D36466"/>
<path d="M126.087 149.385H107.319V141.185C111.439 139.545 115.469 138.15 117.906 141.185C120.076 141.185 122.157 142.049 123.691 143.587C125.225 145.125 126.087 147.21 126.087 149.385Z" fill="#2F2E41"/>
<path d="M106.28 139.738C95.0608 139.738 91.9204 153.835 91.9204 161.787C91.9204 166.222 93.9214 167.808 97.0658 168.345L98.1762 162.409L100.777 168.6C101.66 168.605 102.588 168.588 103.55 168.57L104.432 166.75L106.399 168.537C114.274 168.549 120.64 169.7 120.64 161.787C120.64 153.835 117.886 139.738 106.28 139.738Z" fill="#2F2E41"/>
<path d="M156.151 155.514C156.222 155.645 156.288 155.78 156.348 155.918C156.65 156.602 156.805 157.342 156.801 158.09C156.798 158.837 156.637 159.576 156.33 160.257C156.022 160.938 155.574 161.546 155.015 162.042C154.456 162.537 153.8 162.908 153.088 163.132C152.922 163.183 152.754 163.226 152.584 163.259L142.842 188.518C142.52 189.344 141.94 190.043 141.19 190.513C140.44 190.983 139.559 191.197 138.678 191.125L138.629 191.116L117.514 184.744C116.362 184.396 115.396 183.603 114.827 182.54C114.258 181.478 114.134 180.232 114.48 179.078C114.827 177.923 115.617 176.954 116.677 176.383C117.736 175.811 118.979 175.685 120.131 176.032C120.157 176.04 120.184 176.048 120.21 176.056L135.15 180.864L146.717 160.31C146.614 160.097 146.527 159.877 146.456 159.651C146.064 158.395 146.152 157.037 146.702 155.843C147.253 154.648 148.227 153.7 149.435 153.185C150.644 152.669 152 152.622 153.241 153.053C154.482 153.483 155.519 154.361 156.151 155.514Z" fill="#FFB8B8"/>
<path d="M343.856 91.3584C335.962 80.7704 321.515 78.215 314.336 83.5921C307.157 88.9692 305.508 103.58 313.402 114.169C320.708 123.969 333.946 126.642 341.237 122.97C341.213 123.085 341.212 123.203 341.232 123.318L341.643 125.355C341.675 125.51 341.745 125.655 341.848 125.775C341.951 125.896 342.083 125.988 342.231 126.043C342.379 126.098 342.539 126.114 342.695 126.089C342.851 126.065 342.999 126.001 343.123 125.903L346.604 123.177C346.729 123.08 346.826 122.952 346.888 122.806C346.949 122.66 346.972 122.501 346.955 122.343C346.938 122.186 346.88 122.035 346.789 121.906C346.697 121.777 346.574 121.674 346.432 121.606L344.559 120.713C344.493 120.683 344.424 120.662 344.353 120.648C349.973 114.693 351.178 101.18 343.856 91.3584Z" fill="#F0F0F0"/>
<path d="M326.59 87.3608C330.451 87.9755 333.93 90.0528 336.307 93.1637C338.685 96.2746 339.78 100.182 339.367 104.079C339.282 104.971 340.673 104.965 340.757 104.079C341.156 99.8784 339.955 95.6827 337.396 92.3328C334.837 88.983 331.109 86.7267 326.96 86.0164C326.084 85.8673 325.708 87.2105 326.59 87.3608Z" fill="#E8A1A3"/>
<path d="M80.3944 104.638C87.2954 93.3748 84.3287 78.9742 76.692 74.2731C69.0553 69.5721 54.8998 73.4326 47.9988 84.6957C41.611 95.1212 44.022 108.439 50.1191 113.874C50.0041 113.894 49.8941 113.937 49.795 113.998L48.0583 115.134C47.9259 115.22 47.8178 115.339 47.7442 115.479C47.6706 115.62 47.634 115.776 47.6378 115.935C47.6417 116.093 47.6858 116.248 47.7661 116.384C47.8464 116.521 47.9602 116.634 48.0966 116.714L51.9094 118.95C52.0458 119.03 52.2004 119.074 52.3584 119.077C52.5164 119.08 52.6727 119.043 52.8123 118.969C52.9519 118.894 53.0703 118.786 53.1562 118.653C53.242 118.52 53.2925 118.367 53.3029 118.209L53.4389 116.135C53.4421 116.063 53.4367 115.99 53.4229 115.919C61.02 118.954 73.9928 115.086 80.3944 104.638Z" fill="#FAFAFA"/>
<path d="M77.7234 87.079C78.5795 90.9026 77.9384 94.9098 75.9323 98.2734C73.9263 101.637 70.7084 104.1 66.9429 105.155C66.084 105.405 66.6033 106.699 67.4566 106.45C71.4977 105.27 74.9441 102.601 77.1047 98.9806C79.2653 95.3597 79.9803 91.054 79.1063 86.9268C78.9212 86.0562 77.537 86.2019 77.7234 87.079Z" fill="#E8A1A3"/>
<path d="M425.438 23.0869C424.861 9.88187 414.356 -0.382177 405.403 0.0109239C396.449 0.404025 386.88 11.5494 387.457 24.7544C387.991 36.9773 397.43 46.6559 405.519 47.7355C405.435 47.817 405.367 47.9137 405.32 48.0206L404.515 49.9361C404.454 50.0821 404.431 50.2414 404.448 50.3989C404.466 50.5564 404.523 50.7068 404.615 50.8358C404.706 50.9649 404.829 51.0683 404.972 51.1362C405.115 51.2042 405.273 51.2344 405.43 51.2241L409.838 50.9355C409.996 50.9252 410.148 50.8746 410.281 50.7886C410.414 50.7026 410.523 50.584 410.597 50.4441C410.671 50.3042 410.708 50.1476 410.705 49.9893C410.702 49.8309 410.658 49.6759 410.578 49.5391L409.532 47.7448C409.494 47.6831 409.45 47.6261 409.398 47.5749C417.388 45.8242 425.973 35.3363 425.438 23.0869Z" fill="#E8A1A3"/>
<path d="M413.413 10.0405C416.259 12.7275 417.967 16.407 418.185 20.3197C418.402 24.2324 417.113 28.0796 414.583 31.0671C414.012 31.757 415.165 32.5373 415.733 31.852C418.42 28.6052 419.784 24.4599 419.551 20.2473C419.317 16.0347 417.504 12.0664 414.473 9.13811C413.834 8.52078 412.768 9.41864 413.413 10.0405Z" fill="white"/>
<path d="M343.081 61.2084C339.63 60.9905 336.28 59.9559 333.304 58.1894C330.329 56.4229 327.814 53.9749 325.965 51.0459C325.447 50.2156 324.77 49.3032 325.129 48.2811C325.254 47.8893 325.508 47.5515 325.849 47.323C326.191 47.0945 326.599 46.9888 327.008 47.0232C328.066 47.1522 328.748 48.1893 328.879 49.183C329.026 50.3102 328.233 51.1951 327.253 51.6139C324.86 52.6373 322.445 51.0557 320.495 49.7935C316.053 46.9173 311.166 44.3163 305.783 43.9885C300.802 43.6852 295.461 45.6427 292.691 49.972C292.206 50.7295 293.41 51.4294 293.892 50.6757C296.64 46.3821 302.194 44.84 307.023 45.5036C309.901 45.9588 312.68 46.9045 315.24 48.2997C316.567 48.9902 317.854 49.7556 319.116 50.5603C320.316 51.3997 321.588 52.1308 322.917 52.7448C325.134 53.6575 328.069 53.5862 329.618 51.4847C331.062 49.5241 329.946 46.2601 327.529 45.7089C326.999 45.6042 326.452 45.6329 325.936 45.7925C325.419 45.9522 324.951 46.2377 324.572 46.6236C324.193 47.0094 323.915 47.4835 323.764 48.0034C323.612 48.5232 323.592 49.0725 323.705 49.6021C323.946 50.7567 324.813 51.8865 325.485 52.8302C327.502 55.6745 330.13 58.029 333.175 59.7203C336.221 61.4116 339.606 62.3965 343.081 62.6025C343.976 62.6469 343.974 61.2526 343.081 61.2084Z" fill="#CCCCCC"/>
</g>
<defs>
<clipPath id="clip0_74_778">
<rect width="442" height="327" fill="white"/>
</clipPath>
</defs>
</svg>
