<svg width="75" height="70" viewBox="0 0 75 70" fill="none" xmlns="http://www.w3.org/2000/svg">
<g filter="url(#filter0_d_43_316)">
<path d="M41.6 53.8C53.1022 53.8 58.8535 53.8 62.4266 50.2266C66 46.6535 66 40.9022 66 29.4C66 17.8977 66 12.1466 62.4266 8.57329C58.8535 5 53.1022 5 41.6 5H29.4C17.8977 5 12.1466 5 8.57329 8.57329C5 12.1466 5 17.8977 5 29.4C5 40.9022 5 46.6535 8.57329 50.2266C10.5655 52.2189 13.2347 53.1003 17.2 53.4904" fill="#FFFBFF"/>
<path d="M41.6 53.8C53.1022 53.8 58.8535 53.8 62.4266 50.2266C66 46.6535 66 40.9022 66 29.4C66 17.8977 66 12.1466 62.4266 8.57329C58.8535 5 53.1022 5 41.6 5H29.4C17.8977 5 12.1466 5 8.57329 8.57329C5 12.1466 5 17.8977 5 29.4C5 40.9022 5 46.6535 8.57329 50.2266C10.5655 52.2189 13.2347 53.1003 17.2 53.4904" stroke="#252323" stroke-width="5" stroke-linecap="round" stroke-linejoin="round"/>
<path d="M41.6 53.7996C37.8287 53.7996 33.6767 55.3222 29.8837 57.2919C23.7916 60.455 20.7456 62.0367 19.2446 61.029C17.7435 60.021 18.0276 56.8957 18.5959 50.645L18.725 49.2246" fill="#FFFBFF"/>
<path d="M41.6 53.7996C37.8287 53.7996 33.6767 55.3222 29.8837 57.2919C23.7916 60.455 20.7456 62.0367 19.2446 61.029C17.7435 60.021 18.0276 56.8957 18.5959 50.645L18.725 49.2246" stroke="#252323" stroke-width="5" stroke-linecap="round"/>
<path d="M22 30.8125V36.5C22 39.5641 22 41.0961 22.9519 42.0481C23.9038 43 25.4359 43 28.5 43H30.125H39.875H41.5C44.5641 43 46.0961 43 47.0481 42.0481C48 41.0961 48 39.5641 48 36.5V30.8125C48 30.3638 47.6362 30 47.1875 30H22.8125C22.3638 30 22 30.3638 22 30.8125Z" fill="#D36567"/>
<path d="M21 26.3279C21 25.5901 21 25.2212 21.061 24.9145C21.3116 23.6547 22.2963 22.67 23.5561 22.4194C23.8628 22.3584 24.2317 22.3584 24.9695 22.3584H35.2902H45.6109C46.3487 22.3584 46.7176 22.3584 47.0243 22.4194C48.2841 22.67 49.2688 23.6547 49.5194 24.9145C49.5804 25.2212 49.5804 25.5901 49.5804 26.3279C49.5804 27.0657 49.5804 27.4346 49.5194 27.7413C49.2688 29.0011 48.2841 29.9859 47.0243 30.2364C46.7176 30.2974 46.3487 30.2974 45.6109 30.2974H35.2902H24.9695C24.2317 30.2974 23.8628 30.2974 23.5561 30.2364C22.2963 29.9859 21.3116 29.0011 21.061 27.7413C21 27.4346 21 27.0657 21 26.3279Z" stroke="#252323" stroke-width="3" stroke-linejoin="round"/>
<path d="M22.5878 30.2979V36.649C22.5878 39.643 22.5878 41.14 23.5179 42.0701C24.448 43.0002 25.945 43.0002 28.939 43.0002H30.5268H40.0536H41.6414C44.6353 43.0002 46.1323 43.0002 47.0624 42.0701C47.9926 41.14 47.9926 39.643 47.9926 36.649V30.2979" stroke="#252323" stroke-width="3" stroke-linecap="round" stroke-linejoin="round"/>
<path d="M35.2902 22.3584V42.9998" stroke="#252323" stroke-width="3" stroke-linecap="round" stroke-linejoin="round"/>
<path d="M34.2983 21.1189L31.1554 17.1903C29.9731 15.7123 27.7657 15.5931 26.4273 16.9315C24.4268 18.932 25.8375 22.3587 28.6666 22.3587H33.7024C34.3423 22.3587 34.6981 21.6186 34.2983 21.1189Z" stroke="#252323" stroke-width="3" stroke-linecap="round" stroke-linejoin="round"/>
<path d="M36.2821 21.1189L39.425 17.1903C40.6074 15.7123 42.8147 15.5931 44.1531 16.9315C46.1536 18.932 44.743 22.3587 41.9138 22.3587H36.878C36.2381 22.3587 35.8823 21.6186 36.2821 21.1189Z" stroke="#252323" stroke-width="3" stroke-linecap="round" stroke-linejoin="round"/>
</g>
<defs>
<filter id="filter0_d_43_316" x="0.499996" y="0.5" width="74" height="69.3311" filterUnits="userSpaceOnUse" color-interpolation-filters="sRGB">
<feFlood flood-opacity="0" result="BackgroundImageFix"/>
<feColorMatrix in="SourceAlpha" type="matrix" values="0 0 0 0 0 0 0 0 0 0 0 0 0 0 0 0 0 0 127 0" result="hardAlpha"/>
<feOffset dx="2" dy="2"/>
<feGaussianBlur stdDeviation="2"/>
<feComposite in2="hardAlpha" operator="out"/>
<feColorMatrix type="matrix" values="0 0 0 0 0 0 0 0 0 0 0 0 0 0 0 0 0 0 0.25 0"/>
<feBlend mode="normal" in2="BackgroundImageFix" result="effect1_dropShadow_43_316"/>
<feBlend mode="normal" in="SourceGraphic" in2="effect1_dropShadow_43_316" result="shape"/>
</filter>
</defs>
</svg>
