<svg width="148" height="213" viewBox="0 0 148 213" fill="none" xmlns="http://www.w3.org/2000/svg">
<g clip-path="url(#clip0_74_874)">
<path d="M122.034 193.675C116.67 199.419 110.523 204.379 103.775 208.408C103.621 208.503 103.463 208.592 103.305 208.685L92.3813 199.015C92.496 198.908 92.6231 198.789 92.76 198.657C100.899 190.928 141.307 136.883 144 123.722C143.814 124.818 146.429 167.816 122.034 193.675Z" fill="#E8A1A3"/>
<path d="M105.883 210.275C105.676 210.324 105.466 210.37 105.255 210.412L97.0599 203.158C97.2201 203.102 97.4073 203.036 97.6214 202.962C101.138 201.717 111.611 197.958 122.033 193.676C133.232 189.074 144.377 183.873 146.774 180.542C146.26 181.316 130.421 204.787 105.883 210.275Z" fill="#E8A1A3"/>
<path d="M121.882 50.636H120.715V18.6601C120.715 16.2298 120.236 13.8232 119.306 11.5779C118.376 9.33252 117.013 7.29235 115.295 5.57384C113.577 3.85532 111.537 2.49212 109.292 1.56207C107.047 0.632012 104.64 0.15332 102.21 0.15332H34.473C32.0429 0.153315 29.6366 0.632 27.3916 1.56205C25.1465 2.49209 23.1065 3.85529 21.3882 5.5738C19.6699 7.29231 18.3069 9.33247 17.3769 11.5778C16.447 13.8232 15.9683 16.2297 15.9683 18.66V194.082C15.9683 196.513 16.4469 198.919 17.3769 201.164C18.3068 203.41 19.6699 205.45 21.3882 207.169C23.1065 208.887 25.1464 210.25 27.3915 211.18C29.6366 212.11 32.0429 212.589 34.4729 212.589H102.21C104.64 212.589 107.047 212.11 109.292 211.18C111.537 210.25 113.577 208.887 115.295 207.169C117.013 205.45 118.376 203.41 119.306 201.165C120.236 198.919 120.715 196.513 120.715 194.082V73.397H121.882V50.636Z" fill="#252323"/>
<path d="M116.776 18.7866V193.953C116.776 195.768 116.419 197.566 115.724 199.242C115.03 200.919 114.011 202.443 112.728 203.726C111.444 205.009 109.921 206.027 108.244 206.721C106.567 207.415 104.77 207.772 102.955 207.771H34.8917C33.0773 207.771 31.2807 207.414 29.6043 206.72C27.928 206.025 26.4049 205.008 25.1219 203.724C23.8389 202.441 22.8212 200.918 22.1269 199.241C21.4326 197.565 21.0753 195.768 21.0754 193.953V18.7866C21.0753 16.9719 21.4326 15.1751 22.1269 13.4985C22.8212 11.822 23.8389 10.2987 25.1219 9.01558C26.4049 7.73246 27.928 6.71465 29.6043 6.02029C31.2807 5.32593 33.0773 4.96861 34.8917 4.96875H43.1516C42.7461 5.96581 42.5918 7.04723 42.7023 8.1179C42.8128 9.18857 43.1847 10.2157 43.7852 11.1089C44.3857 12.0021 45.1964 12.7341 46.1462 13.2404C47.0959 13.7468 48.1554 14.012 49.2317 14.0127H88.0366C89.1135 14.0137 90.174 13.7496 91.1247 13.2438C92.0754 12.7379 92.887 12.0058 93.4879 11.1121C94.0887 10.2183 94.4604 9.19044 94.5701 8.11906C94.6799 7.04767 94.5242 5.96575 94.117 4.96875H102.955C104.77 4.96809 106.567 5.32502 108.244 6.01913C109.921 6.71325 111.444 7.73096 112.728 9.01412C114.011 10.2973 115.03 11.8208 115.724 13.4976C116.419 15.1743 116.776 16.9716 116.776 18.7866Z" fill="#FFFBFF"/>
<path d="M95.604 109.813H35.7782C34.7304 109.811 33.7257 109.395 32.9848 108.654C32.2438 107.913 31.827 106.908 31.8259 105.86V103.892C31.827 102.844 32.2438 101.84 32.9848 101.099C33.7257 100.357 34.7304 99.9406 35.7782 99.9395H95.604C96.6519 99.9406 97.6565 100.357 98.3974 101.099C99.1384 101.84 99.5552 102.844 99.5564 103.892V105.86C99.5552 106.908 99.1384 107.913 98.3974 108.654C97.6565 109.395 96.6519 109.811 95.604 109.813Z" fill="#F0F0F0"/>
<path d="M95.604 126.774H35.7782C34.7304 126.772 33.7257 126.356 32.9848 125.615C32.2438 124.873 31.827 123.869 31.8259 122.821V120.853C31.827 119.805 32.2438 118.8 32.9848 118.059C33.7257 117.318 34.7304 116.902 35.7782 116.9H95.604C96.6519 116.902 97.6565 117.318 98.3974 118.059C99.1384 118.8 99.5552 119.805 99.5564 120.853V122.821C99.5552 123.869 99.1384 124.873 98.3974 125.615C97.6565 126.356 96.6519 126.772 95.604 126.774Z" fill="#F0F0F0"/>
<path d="M98.5964 106.019H38.7706C37.6703 106.018 36.6155 105.581 35.8375 104.802C35.0595 104.024 34.6219 102.969 34.6206 101.869V99.9014C34.6219 98.8011 35.0595 97.7461 35.8375 96.968C36.6155 96.1899 37.6703 95.7522 38.7706 95.751H98.5964C99.6966 95.7522 100.751 96.1899 101.529 96.968C102.307 97.7461 102.745 98.8011 102.746 99.9014V101.869C102.745 102.969 102.307 104.024 101.529 104.802C100.751 105.581 99.6966 106.018 98.5964 106.019ZM38.7706 96.5415C37.8799 96.5425 37.026 96.8968 36.3962 97.5267C35.7663 98.1566 35.4121 99.0107 35.4111 99.9014V101.869C35.4121 102.76 35.7663 103.614 36.3962 104.244C37.026 104.874 37.8799 105.228 38.7706 105.229H98.5964C99.487 105.228 100.341 104.874 100.971 104.244C101.601 103.614 101.955 102.76 101.956 101.869V99.9014C101.955 99.0107 101.601 98.1566 100.971 97.5267C100.341 96.8968 99.487 96.5425 98.5964 96.5415H38.7706Z" fill="#3F3D56"/>
<path d="M98.5964 122.98H38.7706C37.6703 122.979 36.6155 122.541 35.8375 121.763C35.0595 120.985 34.6219 119.93 34.6206 118.83V116.862C34.6219 115.762 35.0595 114.707 35.8375 113.929C36.6155 113.151 37.6703 112.713 38.7706 112.712H98.5964C99.6966 112.713 100.751 113.151 101.529 113.929C102.307 114.707 102.745 115.762 102.746 116.862V118.83C102.745 119.93 102.307 120.985 101.529 121.763C100.751 122.541 99.6966 122.979 98.5964 122.98ZM38.7706 113.502C37.8799 113.503 37.026 113.858 36.3962 114.488C35.7663 115.118 35.4121 115.972 35.4111 116.862V118.83C35.4121 119.721 35.7663 120.575 36.3962 121.205C37.026 121.835 37.8799 122.189 38.7706 122.19H98.5964C99.487 122.189 100.341 121.835 100.971 121.205C101.601 120.575 101.955 119.721 101.956 118.83V116.862C101.955 115.972 101.601 115.118 100.971 114.488C100.341 113.858 99.487 113.503 98.5964 113.502H38.7706Z" fill="#3F3D56"/>
<path d="M116.776 18.7866V56.8878C110.723 58.4806 104.385 58.6633 98.2496 57.4219C92.1145 56.1806 86.3459 53.5482 81.3875 49.7274C76.4292 45.9066 72.4134 40.9991 69.649 35.3826C66.8846 29.766 65.4453 23.5901 65.4418 17.33C65.4418 16.2126 65.4867 15.1068 65.5765 14.0127H88.0365C89.1133 14.0137 90.1739 13.7496 91.1246 13.2438C92.0752 12.7379 92.8868 12.0058 93.4877 11.1121C94.0886 10.2183 94.4603 9.19044 94.57 8.11905C94.6797 7.04767 94.524 5.96575 94.1168 4.96875H102.955C104.77 4.96809 106.567 5.32502 108.244 6.01913C109.921 6.71325 111.444 7.73095 112.728 9.01412C114.011 10.2973 115.029 11.8208 115.724 13.4976C116.419 15.1743 116.776 16.9716 116.776 18.7866Z" fill="#F0F0F0"/>
<path d="M55.4664 205.392C55.4664 206.195 55.4364 206.988 55.3717 207.771H34.8917C33.0773 207.772 31.2807 207.414 29.6043 206.72C27.928 206.026 26.4049 205.008 25.1219 203.725C23.8389 202.442 22.8212 200.918 22.1269 199.242C21.4326 197.565 21.0753 195.768 21.0754 193.954V175.217C25.3683 174.659 29.7309 175.022 33.8724 176.282C38.0139 177.543 41.8393 179.672 45.0935 182.527C48.3477 185.382 50.9561 188.898 52.7447 192.841C54.5333 196.784 55.4612 201.062 55.4664 205.392Z" fill="#D36567"/>
<path d="M78.6455 147.227H50.2429C49.195 147.226 48.1904 146.809 47.4494 146.068C46.7085 145.327 46.2917 144.322 46.2905 143.274V141.306C46.2917 140.258 46.7085 139.254 47.4494 138.513C48.1904 137.772 49.195 137.355 50.2429 137.354H78.6455C79.6933 137.355 80.6979 137.772 81.4389 138.513C82.1799 139.254 82.5967 140.258 82.5978 141.306V143.274C82.5967 144.322 82.1799 145.327 81.4389 146.068C80.6979 146.809 79.6933 147.226 78.6455 147.227Z" fill="#D36567"/>
<path d="M81.6381 143.433H53.2354C52.1352 143.431 51.0803 142.994 50.3023 142.216C49.5243 141.437 49.0867 140.382 49.0854 139.282V137.315C49.0867 136.214 49.5243 135.159 50.3023 134.381C51.0803 133.603 52.1352 133.165 53.2354 133.164H81.6381C82.7384 133.165 83.7932 133.603 84.5712 134.381C85.3492 135.159 85.7868 136.214 85.7881 137.315V139.282C85.7868 140.382 85.3492 141.437 84.5712 142.216C83.7932 142.994 82.7384 143.431 81.6381 143.433ZM53.2354 133.955C52.3447 133.956 51.4908 134.31 50.861 134.94C50.2312 135.57 49.8769 136.424 49.8759 137.315V139.282C49.8769 140.173 50.2312 141.027 50.861 141.657C51.4908 142.287 52.3447 142.641 53.2354 142.642H81.6381C82.5288 142.641 83.3827 142.287 84.0125 141.657C84.6423 141.027 84.9966 140.173 84.9976 139.282V137.315C84.9966 136.424 84.6423 135.57 84.0125 134.94C83.3827 134.31 82.5288 133.956 81.6381 133.955H53.2354Z" fill="#3F3D56"/>
</g>
<defs>
<clipPath id="clip0_74_874">
<rect width="146.795" height="212.245" fill="white" transform="translate(0.349976 0.570312)"/>
</clipPath>
</defs>
</svg>
