<svg width="128" height="226" viewBox="0 0 128 226" fill="none" xmlns="http://www.w3.org/2000/svg">
<g clip-path="url(#clip0_74_896)">
<path d="M118.269 50.6824H117.105V18.8775C117.105 16.4602 116.627 14.0665 115.699 11.8332C114.771 9.59984 113.411 7.57058 111.697 5.86126C109.982 4.15193 107.947 2.79602 105.707 1.87094C103.466 0.945858 101.065 0.469727 98.6406 0.469727H31.0509C28.6261 0.469721 26.2251 0.945847 23.9849 1.87092C21.7447 2.79599 19.7093 4.1519 17.9947 5.86122C16.2801 7.57054 14.92 9.59979 13.9921 11.8331C13.0642 14.0665 12.5866 16.4601 12.5866 18.8775V193.362C12.5866 195.779 13.0642 198.173 13.9921 200.406C14.92 202.639 16.2801 204.669 17.9947 206.378C19.7092 208.087 21.7447 209.443 23.9849 210.368C26.2251 211.293 28.6261 211.769 31.0509 211.769H98.6405C101.065 211.769 103.466 211.293 105.706 210.368C107.947 209.443 109.982 208.087 111.697 206.378C113.411 204.669 114.771 202.639 115.699 200.406C116.627 198.173 117.105 195.779 117.105 193.362V73.3217H118.269V50.6824Z" fill="#252323"/>
<path d="M113.677 18.864V193.094C113.677 194.899 113.32 196.687 112.627 198.355C111.934 200.023 110.918 201.538 109.637 202.814C108.356 204.091 106.836 205.103 105.163 205.793C103.49 206.484 101.696 206.839 99.8856 206.838H31.9706C30.1601 206.838 28.3673 206.483 26.6947 205.792C25.022 205.102 23.5022 204.089 22.222 202.813C20.9418 201.537 19.9263 200.021 19.2335 198.354C18.5408 196.686 18.1843 194.899 18.1844 193.094V18.864C18.1843 17.0591 18.5408 15.2718 19.2335 13.6043C19.9263 11.9367 20.9418 10.4216 22.222 9.14531C23.5022 7.86904 25.022 6.85668 26.6947 6.16603C28.3673 5.47539 30.1601 5.11998 31.9706 5.12012H40.2124C39.8078 6.11184 39.6539 7.18748 39.7641 8.25242C39.8744 9.31737 40.2454 10.339 40.8446 11.2274C41.4438 12.1159 42.2528 12.8439 43.2004 13.3476C44.1481 13.8512 45.2053 14.115 46.2792 14.1157H84.9995C86.0741 14.1167 87.1323 13.854 88.0809 13.3509C89.0295 12.8477 89.8393 12.1196 90.4389 11.2306C91.0385 10.3416 91.4093 9.31923 91.5188 8.25358C91.6283 7.18792 91.473 6.11178 91.0666 5.12012H99.8856C101.696 5.11946 103.49 5.47448 105.163 6.16488C106.836 6.85529 108.356 7.86755 109.637 9.14386C110.918 10.4202 111.934 11.9355 112.627 13.6033C113.32 15.2711 113.677 17.0587 113.677 18.864Z" fill="#FFFBFF"/>
<path d="M99.0037 211.665H31.6742C29.2207 211.665 26.7912 211.183 24.5245 210.246C22.2577 209.31 20.1981 207.937 18.4632 206.206C16.7283 204.475 15.3521 202.421 14.4132 200.16C13.4743 197.898 12.991 195.475 12.991 193.027V19.1074C12.9966 14.1661 14.9668 9.42878 18.4694 5.93475C21.972 2.44072 26.7209 0.47532 31.6742 0.469727H99.0034C103.957 0.475305 108.706 2.4407 112.208 5.93473C115.711 9.42876 117.681 14.1661 117.687 19.1074V50.5201H118.847V73.6648H117.687V193.027C117.687 197.97 115.718 202.711 112.215 206.206C108.711 209.701 103.959 211.665 99.0037 211.665ZM31.6742 1.04852C26.8747 1.05393 22.2733 2.95829 18.8795 6.34381C15.4857 9.72934 13.5767 14.3195 13.5712 19.1074V193.027C13.5712 195.399 14.0394 197.747 14.9492 199.938C15.8589 202.129 17.1924 204.12 18.8734 205.797C20.5544 207.474 22.5501 208.804 24.7464 209.711C26.9428 210.619 29.2968 211.086 31.6742 211.086H99.0034C103.805 211.086 108.409 209.183 111.804 205.797C115.199 202.41 117.106 197.817 117.106 193.027V73.0861H118.267V51.0988H117.106V19.1074C117.101 14.3195 115.192 9.72934 111.798 6.34381C108.404 2.95829 103.803 1.05393 99.0034 1.04852H31.6742Z" fill="#3F3D56"/>
<path d="M121.213 113.556H6.58599C4.96134 113.554 3.40375 112.909 2.25495 111.763C1.10615 110.617 0.459958 109.063 0.45813 107.443V70.7653C0.459958 69.1446 1.10615 67.5908 2.25495 66.4448C3.40375 65.2988 4.96134 64.6542 6.58599 64.6523H121.213C122.838 64.6542 124.395 65.2988 125.544 66.4448C126.693 67.5908 127.339 69.1446 127.341 70.7653V107.443C127.339 109.063 126.693 110.617 125.544 111.763C124.395 112.909 122.838 113.554 121.213 113.556Z" fill="white"/>
<path d="M121.213 113.556H6.58599C4.96134 113.554 3.40375 112.909 2.25495 111.763C1.10615 110.617 0.459958 109.063 0.45813 107.443V70.7653C0.459958 69.1446 1.10615 67.5908 2.25495 66.4448C3.40375 65.2988 4.96134 64.6542 6.58599 64.6523H121.213C122.838 64.6542 124.395 65.2988 125.544 66.4448C126.693 67.5908 127.339 69.1446 127.341 70.7653V107.443C127.339 109.063 126.693 110.617 125.544 111.763C124.395 112.909 122.838 113.554 121.213 113.556ZM6.58599 65.3715C5.15248 65.3731 3.77815 65.9419 2.7645 66.9531C1.75086 67.9643 1.18068 69.3352 1.17905 70.7653V107.443C1.18068 108.873 1.75086 110.244 2.7645 111.255C3.77815 112.266 5.15248 112.835 6.58599 112.837H121.213C122.646 112.835 124.021 112.266 125.034 111.255C126.048 110.244 126.618 108.873 126.62 107.443V70.7653C126.618 69.3352 126.048 67.9643 125.034 66.9531C124.021 65.9419 122.646 65.3731 121.213 65.3715H6.58599Z" fill="#3F3D56"/>
<path d="M78.9311 87.1264H38.9198C38.155 87.1264 37.4215 86.8233 36.8807 86.2838C36.3399 85.7444 36.0361 85.0127 36.0361 84.2497C36.0361 83.4868 36.3399 82.7551 36.8807 82.2156C37.4215 81.6761 38.155 81.373 38.9198 81.373H78.9311C79.6959 81.373 80.4294 81.6761 80.9701 82.2156C81.5109 82.7551 81.8148 83.4868 81.8148 84.2497C81.8148 85.0127 81.5109 85.7444 80.9701 86.2838C80.4294 86.8233 79.6959 87.1264 78.9311 87.1264Z" fill="#D36567"/>
<path d="M116.059 96.8354H38.9198C38.155 96.8354 37.4215 96.5323 36.8807 95.9928C36.3399 95.4533 36.0361 94.7216 36.0361 93.9587C36.0361 93.1958 36.3399 92.4641 36.8807 91.9246C37.4215 91.3851 38.155 91.082 38.9198 91.082H116.059C116.823 91.082 117.557 91.3851 118.098 91.9246C118.639 92.4641 118.942 93.1958 118.942 93.9587C118.942 94.7216 118.639 95.4533 118.098 95.9928C117.557 96.5323 116.823 96.8354 116.059 96.8354Z" fill="#D36567"/>
<path d="M19.6705 99.8924C25.6428 99.8924 30.4844 95.0627 30.4844 89.1049C30.4844 83.1471 25.6428 78.3174 19.6705 78.3174C13.6982 78.3174 8.85663 83.1471 8.85663 89.1049C8.85663 95.0627 13.6982 99.8924 19.6705 99.8924Z" fill="#D36567"/>
<path d="M116.054 108.522H105.961C105.197 108.522 104.463 108.219 103.922 107.679C103.382 107.14 103.078 106.408 103.078 105.645C103.078 104.882 103.382 104.151 103.922 103.611C104.463 103.072 105.197 102.769 105.961 102.769H116.054C116.433 102.769 116.808 102.843 117.158 102.988C117.508 103.132 117.826 103.344 118.093 103.611C118.361 103.878 118.574 104.195 118.719 104.544C118.864 104.893 118.938 105.267 118.938 105.645C118.938 106.023 118.864 106.397 118.719 106.746C118.574 107.095 118.361 107.412 118.093 107.679C117.826 107.946 117.508 108.158 117.158 108.303C116.808 108.447 116.433 108.522 116.054 108.522Z" fill="white"/>
<path d="M116.054 108.522H105.961C105.197 108.522 104.463 108.219 103.922 107.679C103.382 107.14 103.078 106.408 103.078 105.645C103.078 104.882 103.382 104.151 103.922 103.611C104.463 103.072 105.197 102.769 105.961 102.769H116.054C116.433 102.769 116.808 102.843 117.158 102.988C117.508 103.132 117.826 103.344 118.093 103.611C118.361 103.878 118.574 104.195 118.719 104.544C118.864 104.893 118.938 105.267 118.938 105.645C118.938 106.023 118.864 106.397 118.719 106.746C118.574 107.095 118.361 107.412 118.093 107.679C117.826 107.946 117.508 108.158 117.158 108.303C116.808 108.447 116.433 108.522 116.054 108.522Z" fill="#CCCCCC"/>
<path d="M98.692 55.2489H34.909C34.005 55.2479 33.1383 54.8892 32.499 54.2515C31.8598 53.6138 31.5002 52.7492 31.4992 51.8474V31.4386C31.5002 30.5368 31.8598 29.6722 32.499 29.0345C33.1383 28.3968 34.005 28.0381 34.909 28.0371H98.692C99.596 28.0381 100.463 28.3968 101.102 29.0345C101.741 29.6722 102.101 30.5368 102.102 31.4386V51.8474C102.101 52.7492 101.741 53.6138 101.102 54.2515C100.463 54.8892 99.596 55.2478 98.692 55.2489ZM34.909 28.4373C34.1113 28.4382 33.3466 28.7547 32.7826 29.3173C32.2185 29.88 31.9013 30.6429 31.9004 31.4386V51.8474C31.9013 52.6431 32.2185 53.406 32.7826 53.9686C33.3466 54.5313 34.1113 54.8478 34.909 54.8487H98.692C99.4897 54.8478 100.254 54.5313 100.818 53.9686C101.382 53.406 101.7 52.6431 101.701 51.8474V31.4386C101.7 30.6429 101.382 29.88 100.818 29.3173C100.254 28.7547 99.4897 28.4382 98.692 28.4373H34.909Z" fill="#CCCCCC"/>
<path d="M75.1647 40.5432H52.9008C52.4756 40.5426 52.068 40.3737 51.7676 40.0736C51.4671 39.7735 51.2983 39.3666 51.2983 38.9425C51.2983 38.5183 51.4671 38.1115 51.7676 37.8114C52.068 37.5113 52.4756 37.3424 52.9008 37.3418H75.1647C75.5899 37.3424 75.9974 37.5113 76.2979 37.8114C76.5984 38.1115 76.7671 38.5183 76.7671 38.9425C76.7671 39.3666 76.5984 39.7735 76.2979 40.0736C75.9974 40.3737 75.5899 40.5426 75.1647 40.5432Z" fill="#E6E6E6"/>
<path d="M95.824 45.9455H52.9008C52.4756 45.945 52.068 45.7761 51.7676 45.4759C51.4671 45.1758 51.2983 44.769 51.2983 44.3448C51.2983 43.9207 51.4671 43.5139 51.7676 43.2137C52.068 42.9136 52.4756 42.7447 52.9008 42.7441H95.824C96.0349 42.7439 96.2438 42.7851 96.4387 42.8654C96.6336 42.9457 96.8107 43.0635 96.96 43.2122C97.1092 43.3609 97.2276 43.5374 97.3084 43.7318C97.3891 43.9261 97.4307 44.1344 97.4307 44.3448C97.4307 44.5552 97.3891 44.7635 97.3084 44.9579C97.2276 45.1522 97.1092 45.3288 96.96 45.4775C96.8107 45.6261 96.6336 45.744 96.4387 45.8243C96.2438 45.9046 96.0349 45.9458 95.824 45.9455Z" fill="#E6E6E6"/>
<path d="M42.1897 47.6458C45.513 47.6458 48.207 44.9584 48.207 41.6432C48.207 38.3281 45.513 35.6406 42.1897 35.6406C38.8665 35.6406 36.1725 38.3281 36.1725 41.6432C36.1725 44.9584 38.8665 47.6458 42.1897 47.6458Z" fill="#E6E6E6"/>
<path d="M95.8216 52.4485H90.2055C89.9946 52.4487 89.7857 52.4075 89.5907 52.3272C89.3958 52.2469 89.2187 52.129 89.0694 51.9804C88.9202 51.8317 88.8018 51.6552 88.721 51.4608C88.6403 51.2665 88.5987 51.0581 88.5987 50.8478C88.5987 50.6374 88.6403 50.4291 88.721 50.2347C88.8018 50.0404 88.9202 49.8638 89.0694 49.7151C89.2187 49.5665 89.3958 49.4486 89.5907 49.3683C89.7857 49.288 89.9946 49.2468 90.2055 49.2471H95.8216C96.2468 49.2476 96.6544 49.4165 96.9548 49.7167C97.2553 50.0168 97.424 50.4236 97.424 50.8478C97.424 51.2719 97.2553 51.6787 96.9548 51.9789C96.6544 52.279 96.2468 52.4479 95.8216 52.4485Z" fill="white"/>
<path d="M95.8216 52.4485H90.2055C89.9946 52.4487 89.7857 52.4075 89.5907 52.3272C89.3958 52.2469 89.2187 52.129 89.0694 51.9804C88.9202 51.8317 88.8018 51.6552 88.721 51.4608C88.6403 51.2665 88.5987 51.0581 88.5987 50.8478C88.5987 50.6374 88.6403 50.4291 88.721 50.2347C88.8018 50.0404 88.9202 49.8638 89.0694 49.7151C89.2187 49.5665 89.3958 49.4486 89.5907 49.3683C89.7857 49.288 89.9946 49.2468 90.2055 49.2471H95.8216C96.2468 49.2476 96.6544 49.4165 96.9548 49.7167C97.2553 50.0168 97.424 50.4236 97.424 50.8478C97.424 51.2719 97.2553 51.6787 96.9548 51.9789C96.6544 52.279 96.2468 52.4479 95.8216 52.4485Z" fill="#CCCCCC"/>
<path d="M98.692 149.593H34.909C34.005 149.592 33.1383 149.233 32.499 148.595C31.8598 147.958 31.5002 147.093 31.4992 146.191V125.782C31.5002 124.881 31.8598 124.016 32.499 123.378C33.1383 122.741 34.005 122.382 34.909 122.381H98.692C99.596 122.382 100.463 122.741 101.102 123.378C101.741 124.016 102.101 124.881 102.102 125.782V146.191C102.101 147.093 101.741 147.958 101.102 148.595C100.463 149.233 99.596 149.592 98.692 149.593ZM34.909 122.781C34.1113 122.782 33.3466 123.098 32.7826 123.661C32.2185 124.224 31.9013 124.987 31.9004 125.782V146.191C31.9013 146.987 32.2185 147.75 32.7826 148.312C33.3466 148.875 34.1113 149.192 34.909 149.192H98.692C99.4897 149.192 100.254 148.875 100.818 148.312C101.382 147.75 101.7 146.987 101.701 146.191V125.782C101.7 124.987 101.382 124.224 100.818 123.661C100.254 123.098 99.4897 122.782 98.692 122.781H34.909Z" fill="#CCCCCC"/>
<path d="M75.1647 134.886H52.9008C52.4752 134.886 52.0671 134.717 51.7662 134.417C51.4653 134.117 51.2962 133.71 51.2962 133.285C51.2962 132.861 51.4653 132.454 51.7662 132.153C52.0671 131.853 52.4752 131.685 52.9008 131.685H75.1647C75.5899 131.685 75.9975 131.854 76.2979 132.154C76.5984 132.454 76.7671 132.861 76.7671 133.285C76.7671 133.709 76.5984 134.116 76.2979 134.416C75.9975 134.716 75.5899 134.885 75.1647 134.886Z" fill="#E6E6E6"/>
<path d="M95.824 140.288H52.9008C52.4756 140.288 52.068 140.119 51.7676 139.819C51.4671 139.519 51.2983 139.112 51.2983 138.688C51.2983 138.263 51.4671 137.857 51.7676 137.557C52.068 137.256 52.4756 137.087 52.9008 137.087H95.824C96.2495 137.087 96.6577 137.256 96.9586 137.556C97.2595 137.856 97.4286 138.263 97.4286 138.688C97.4286 139.112 97.2595 139.519 96.9586 139.819C96.6577 140.12 96.2495 140.288 95.824 140.288Z" fill="#E6E6E6"/>
<path d="M42.1897 141.99C45.513 141.99 48.207 139.302 48.207 135.987C48.207 132.672 45.513 129.984 42.1897 129.984C38.8665 129.984 36.1725 132.672 36.1725 135.987C36.1725 139.302 38.8665 141.99 42.1897 141.99Z" fill="#E6E6E6"/>
<path d="M95.8216 146.791H90.2055C89.7799 146.791 89.3718 146.623 89.0708 146.322C88.7699 146.022 88.6009 145.615 88.6009 145.191C88.6009 144.766 88.7699 144.359 89.0708 144.059C89.3718 143.758 89.7799 143.59 90.2055 143.59H95.8216C96.2468 143.59 96.6544 143.759 96.9548 144.059C97.2553 144.36 97.424 144.766 97.424 145.191C97.424 145.615 97.2553 146.022 96.9548 146.322C96.6544 146.622 96.2468 146.791 95.8216 146.791Z" fill="white"/>
<path d="M95.8216 146.791H90.2055C89.7799 146.791 89.3718 146.623 89.0708 146.322C88.7699 146.022 88.6009 145.615 88.6009 145.191C88.6009 144.766 88.7699 144.359 89.0708 144.059C89.3718 143.758 89.7799 143.59 90.2055 143.59H95.8216C96.2468 143.59 96.6544 143.759 96.9548 144.059C97.2553 144.36 97.424 144.766 97.424 145.191C97.424 145.615 97.2553 146.022 96.9548 146.322C96.6544 146.622 96.2468 146.791 95.8216 146.791Z" fill="#CCCCCC"/>
<path d="M98.692 187.504H34.909C34.005 187.503 33.1383 187.144 32.499 186.506C31.8598 185.869 31.5002 185.004 31.4992 184.102V163.693C31.5002 162.792 31.8598 161.927 32.499 161.289C33.1383 160.652 34.005 160.293 34.909 160.292H98.692C99.596 160.293 100.463 160.652 101.102 161.289C101.741 161.927 102.101 162.792 102.102 163.693V184.102C102.101 185.004 101.741 185.869 101.102 186.506C100.463 187.144 99.596 187.503 98.692 187.504ZM34.909 160.692C34.1113 160.693 33.3466 161.01 32.7826 161.572C32.2185 162.135 31.9013 162.898 31.9004 163.693V184.102C31.9013 184.898 32.2185 185.661 32.7826 186.224C33.3466 186.786 34.1113 187.103 34.909 187.104H98.692C99.4897 187.103 100.254 186.786 100.818 186.224C101.382 185.661 101.7 184.898 101.701 184.102V163.693C101.7 162.898 101.382 162.135 100.818 161.572C100.254 161.01 99.4897 160.693 98.692 160.692H34.909Z" fill="#CCCCCC"/>
<path d="M75.1647 172.797H52.9008C52.4752 172.797 52.0671 172.628 51.7662 172.328C51.4653 172.028 51.2962 171.621 51.2962 171.196C51.2962 170.772 51.4653 170.365 51.7662 170.065C52.0671 169.764 52.4752 169.596 52.9008 169.596H75.1647C75.5899 169.596 75.9975 169.765 76.2979 170.065C76.5984 170.365 76.7671 170.772 76.7671 171.196C76.7671 171.621 76.5984 172.027 76.2979 172.327C75.9975 172.628 75.5899 172.797 75.1647 172.797Z" fill="#E6E6E6"/>
<path d="M95.824 178.199H52.9008C52.4756 178.199 52.068 178.03 51.7676 177.73C51.4671 177.43 51.2983 177.023 51.2983 176.599C51.2983 176.175 51.4671 175.768 51.7676 175.468C52.068 175.168 52.4756 174.999 52.9008 174.998H95.824C96.2495 174.998 96.6577 175.167 96.9586 175.467C97.2595 175.767 97.4286 176.174 97.4286 176.599C97.4286 177.023 97.2595 177.43 96.9586 177.731C96.6577 178.031 96.2495 178.199 95.824 178.199Z" fill="#E6E6E6"/>
<path d="M42.1897 179.9C45.513 179.9 48.207 177.212 48.207 173.897C48.207 170.582 45.513 167.895 42.1897 167.895C38.8665 167.895 36.1725 170.582 36.1725 173.897C36.1725 177.212 38.8665 179.9 42.1897 179.9Z" fill="#E6E6E6"/>
<path d="M95.8216 184.702H90.2055C89.7799 184.702 89.3718 184.534 89.0708 184.234C88.7699 183.933 88.6009 183.526 88.6009 183.102C88.6009 182.677 88.7699 182.27 89.0708 181.97C89.3718 181.67 89.7799 181.501 90.2055 181.501H95.8216C96.2468 181.502 96.6544 181.67 96.9548 181.971C97.2553 182.271 97.424 182.678 97.424 183.102C97.424 183.526 97.2553 183.933 96.9548 184.233C96.6544 184.533 96.2468 184.702 95.8216 184.702Z" fill="white"/>
<path d="M95.8216 184.702H90.2055C89.7799 184.702 89.3718 184.534 89.0708 184.234C88.7699 183.933 88.6009 183.526 88.6009 183.102C88.6009 182.677 88.7699 182.27 89.0708 181.97C89.3718 181.67 89.7799 181.501 90.2055 181.501H95.8216C96.2468 181.502 96.6544 181.67 96.9548 181.971C97.2553 182.271 97.424 182.678 97.424 183.102C97.424 183.526 97.2553 183.933 96.9548 184.233C96.6544 184.533 96.2468 184.702 95.8216 184.702Z" fill="#CCCCCC"/>
<path d="M58.9596 222.09H62.5162L64.2081 208.405L58.959 208.406L58.9596 222.09Z" fill="#FFB8B8"/>
<path d="M58.0523 220.932L65.0565 220.932H65.0568C65.643 220.932 66.2234 221.047 66.765 221.271C67.3065 221.494 67.7986 221.822 68.2131 222.236C68.6276 222.649 68.9564 223.14 69.1807 223.68C69.405 224.221 69.5205 224.8 69.5205 225.384V225.529L58.0525 225.529L58.0523 220.932Z" fill="#2F2E41"/>
<path d="M44.7445 222.09H48.3011L49.993 208.405L44.7439 208.406L44.7445 222.09Z" fill="#FFB8B8"/>
<path d="M43.8372 220.932L50.8414 220.932H50.8417C51.4279 220.932 52.0083 221.047 52.5499 221.271C53.0915 221.494 53.5835 221.822 53.998 222.236C54.4125 222.649 54.7413 223.14 54.9656 223.68C55.1899 224.221 55.3054 224.8 55.3054 225.384V225.529L43.8374 225.529L43.8372 220.932Z" fill="#2F2E41"/>
<path d="M59.6694 127.348C63.6046 127.348 66.7947 124.165 66.7947 120.24C66.7947 116.314 63.6046 113.132 59.6694 113.132C55.7343 113.132 52.5442 116.314 52.5442 120.24C52.5442 124.165 55.7343 127.348 59.6694 127.348Z" fill="#FFB8B8"/>
<path d="M64.4609 219.137H57.8608C57.6881 219.137 57.517 219.102 57.3576 219.036C57.1982 218.969 57.0536 218.872 56.9322 218.749C56.8108 218.627 56.715 218.481 56.6503 218.322C56.5856 218.162 56.5534 217.991 56.5555 217.818L56.939 186.555C56.9404 186.444 56.8991 186.336 56.8236 186.255C56.748 186.173 56.644 186.123 56.533 186.116C56.4219 186.109 56.3122 186.144 56.2264 186.215C56.1407 186.285 56.0854 186.386 56.0719 186.497L52.2307 217.992C52.1919 218.307 52.0388 218.598 51.8001 218.809C51.5614 219.02 51.2537 219.136 50.9348 219.137H44.2714C44.0913 219.137 43.9133 219.099 43.7483 219.027C43.5834 218.956 43.4352 218.85 43.3129 218.719C43.1907 218.587 43.0971 218.431 43.0381 218.261C42.979 218.092 42.9558 217.912 42.9699 217.733L47.37 161.568L47.4896 161.555L68.5595 159.285L65.765 217.896C65.7494 218.231 65.6051 218.546 65.3622 218.777C65.1193 219.008 64.7965 219.137 64.4609 219.137Z" fill="#2F2E41"/>
<path d="M47.6265 165.017C47.288 165.016 46.963 164.884 46.7203 164.648C46.4776 164.413 46.3361 164.093 46.3257 163.755C46.2107 160.204 46.0136 147.916 48.3048 138.895C48.9301 136.43 50.3337 134.232 52.3081 132.625C54.2825 131.017 56.7229 130.087 59.2686 129.97C61.7742 129.833 64.2593 130.487 66.3713 131.839C68.4833 133.191 70.115 135.172 71.0348 137.501C74.886 147.255 78.5246 159.277 73.9883 161.163C68.0427 163.634 52.3688 164.735 47.7066 165.014C47.6797 165.016 47.653 165.017 47.6265 165.017Z" fill="#D36567"/>
<path d="M74.8589 113.056C74.9708 113.171 75.0917 113.277 75.2203 113.372L74.4724 127.705L71.3612 129.294L73.1514 134.291L78.9331 132.012C79.4002 131.828 79.7948 131.498 80.0577 131.071C80.3206 130.644 80.4376 130.144 80.3911 129.645L78.8764 113.387C79.3721 113.018 79.7434 112.507 79.941 111.923C80.1386 111.338 80.1531 110.707 79.9826 110.114C79.8121 109.521 79.4646 108.994 78.9865 108.603C78.5083 108.212 77.9221 107.975 77.3058 107.924C76.6895 107.874 76.0723 108.011 75.5363 108.319C75.0004 108.627 74.571 109.09 74.3054 109.647C74.0397 110.204 73.9504 110.829 74.0493 111.438C74.1482 112.047 74.4305 112.611 74.8589 113.056Z" fill="#FFB8B8"/>
<path d="M74.5314 128.238L76.72 134.442C76.7823 134.619 76.8056 134.807 76.7886 134.993C76.7715 135.18 76.7144 135.36 76.6211 135.522C76.5278 135.685 76.4005 135.825 76.2479 135.934C76.0953 136.043 75.921 136.118 75.7368 136.153L69.2833 137.4C68.3761 137.713 67.3815 137.654 66.5178 137.236C65.654 136.819 64.9914 136.076 64.6755 135.172C64.3595 134.268 64.4159 133.276 64.8322 132.413C65.2486 131.55 65.9909 130.887 66.8965 130.57L72.6909 127.519C72.8568 127.431 73.0397 127.381 73.227 127.37C73.4143 127.36 73.6017 127.39 73.7763 127.458C73.951 127.526 74.1088 127.631 74.2391 127.766C74.3694 127.901 74.4691 128.062 74.5314 128.238Z" fill="#D36567"/>
<path d="M43.9957 113.056C43.8838 113.171 43.7629 113.277 43.6343 113.372L44.3822 127.705L47.4934 129.294L45.7032 134.291L39.9215 132.012C39.4544 131.828 39.0598 131.498 38.7969 131.071C38.534 130.644 38.417 130.144 38.4635 129.645L39.9782 113.387C39.4825 113.018 39.1112 112.507 38.9136 111.923C38.716 111.338 38.7015 110.707 38.872 110.114C39.0425 109.521 39.39 108.994 39.8681 108.603C40.3463 108.212 40.9325 107.975 41.5488 107.924C42.1651 107.874 42.7823 108.011 43.3183 108.319C43.8543 108.627 44.2836 109.09 44.5492 109.647C44.8149 110.204 44.9042 110.829 44.8053 111.438C44.7064 112.047 44.4241 112.611 43.9957 113.056Z" fill="#FFB8B8"/>
<path d="M45.0783 127.458C45.2529 127.39 45.4403 127.36 45.6276 127.37C45.8149 127.381 45.9978 127.431 46.1636 127.519L51.9581 130.57C52.8636 130.887 53.606 131.55 54.0223 132.413C54.4387 133.276 54.495 134.268 54.1791 135.172C53.8631 136.077 53.2006 136.819 52.3368 137.236C51.473 137.654 50.4785 137.713 49.5712 137.4L43.1177 136.153C42.9336 136.118 42.7592 136.043 42.6066 135.934C42.4541 135.825 42.3268 135.685 42.2335 135.523C42.1402 135.36 42.083 135.18 42.066 134.993C42.0489 134.807 42.0723 134.619 42.1346 134.443L44.3232 128.238C44.3853 128.062 44.485 127.901 44.6153 127.766C44.7457 127.631 44.9036 127.526 45.0783 127.458Z" fill="#D36567"/>
<path d="M62.4368 121.452C62.3994 120.545 62.6275 119.647 63.0932 118.867C63.559 118.088 64.2422 117.461 65.0595 117.062C67.2254 115.947 68.586 113.568 67.9898 111.395C67.2267 108.614 63.4327 106.811 60.3586 107.768C59.5266 108.062 58.7243 108.434 57.9621 108.879L55.9537 109.953C55.0957 110.381 54.2685 110.868 53.4779 111.411C52.2938 112.281 51.3657 113.453 50.7905 114.803C50.2154 116.154 50.0143 117.634 50.2084 119.088C50.6039 121.915 52.4598 124.508 55.0002 126.283C55.9718 127.007 57.0939 127.505 58.2838 127.739C59.5015 127.939 60.8572 127.712 61.7475 126.956C63.1389 125.776 62.9952 123.799 62.5451 122.148C62.4857 121.92 62.4494 121.687 62.4368 121.452Z" fill="#2F2E41"/>
</g>
<defs>
<clipPath id="clip0_74_896">
<rect width="126.883" height="225.06" fill="white" transform="translate(0.45813 0.469727)"/>
</clipPath>
</defs>
</svg>
