<svg width="240" height="200" viewBox="0 0 240 200" fill="none" xmlns="http://www.w3.org/2000/svg">
<g clip-path="url(#clip0_74_944)">
<path d="M112.507 199.923C164.601 199.923 206.831 197.763 206.831 195.1C206.831 192.436 164.601 190.277 112.507 190.277C60.4128 190.277 18.1823 192.436 18.1823 195.1C18.1823 197.763 60.4128 199.923 112.507 199.923Z" fill="#E8A1A3"/>
<path d="M167.615 46.6049H166.544V17.2553C166.544 12.7501 164.754 8.4295 161.568 5.24386C158.381 2.05823 154.06 0.26856 149.554 0.268555H87.3625C82.8565 0.268546 78.5352 2.0582 75.349 5.24382C72.1628 8.42944 70.3728 12.7501 70.3728 17.2552V178.269C70.3728 182.774 72.1628 187.095 75.3489 190.281C78.5351 193.466 82.8565 195.256 87.3624 195.256H149.554C154.06 195.256 158.381 193.466 161.568 190.281C164.754 187.095 166.544 182.774 166.544 178.269V67.4964H167.615L167.615 46.6049Z" fill="#252323"/>
<path d="M162.928 17.3736V178.151C162.928 181.515 161.591 184.742 159.211 187.121C156.832 189.5 153.604 190.837 150.239 190.837H87.7493C84.3842 190.837 81.157 189.5 78.7775 187.121C76.398 184.742 75.0612 181.515 75.0611 178.151V17.3736C75.0612 14.009 76.398 10.7823 78.7775 8.40324C81.157 6.02415 84.3842 4.68756 87.7493 4.6875H95.3301C94.9576 5.60271 94.8158 6.59542 94.9171 7.57831C95.0183 8.56121 95.3596 9.50415 95.9109 10.3242C96.4622 11.1443 97.2066 11.8163 98.0787 12.2812C98.9507 12.7461 99.9236 12.9897 100.912 12.9904H136.541C137.529 12.9897 138.502 12.7461 139.374 12.2812C140.246 11.8163 140.991 11.1443 141.542 10.3242C142.093 9.50414 142.434 8.5612 142.536 7.57831C142.637 6.59542 142.495 5.60271 142.123 4.6875H150.239C153.604 4.68756 156.832 6.02415 159.211 8.40324C161.591 10.7823 162.928 14.009 162.928 17.3736Z" fill="#FFFBFF"/>
<path d="M142.796 86.6997C142.381 86.9167 141.958 87.1221 141.529 87.3159C141.137 87.4927 140.74 87.6589 140.336 87.8143C140.189 87.8705 140.039 87.9268 139.889 87.9831C138.702 88.4133 137.484 88.7492 136.244 88.9878C135.631 89.1083 135.009 89.203 134.379 89.2718C133.86 89.3307 133.334 89.3727 132.804 89.3977C132.426 89.4164 132.048 89.4245 131.668 89.4245C130.161 89.4251 128.657 89.2843 127.176 89.0038C126.79 88.9342 126.413 88.8511 126.035 88.76C124.207 88.3221 122.438 87.6692 120.764 86.8149C120.614 86.7399 120.464 86.6595 120.314 86.5818C120.091 86.4639 119.874 86.3407 119.657 86.2121C119.762 86.0674 119.874 85.9254 119.989 85.7861C121.243 84.2324 122.811 82.9604 124.589 82.0529C126.368 81.1454 128.317 80.6228 130.312 80.5192C132.306 80.4155 134.299 80.7332 136.162 81.4514C138.025 82.1696 139.716 83.2723 141.124 84.6876C141.613 85.178 142.066 85.7027 142.48 86.2576C142.59 86.4023 142.694 86.5497 142.796 86.6997Z" fill="#D36466"/>
<path d="M132.202 74.9311C138.701 74.9311 143.969 69.664 143.969 63.1667C143.969 56.6694 138.701 51.4023 132.202 51.4023C125.704 51.4023 120.436 56.6694 120.436 63.1667C120.436 69.664 125.704 74.9311 132.202 74.9311Z" fill="#2F2E41"/>
<path d="M135.332 74.9482C139.576 72.6287 141.135 67.3086 138.816 63.0654C136.496 58.8223 131.175 57.2629 126.931 59.5824C122.687 61.9019 121.127 67.222 123.447 71.4651C125.767 75.7083 131.088 77.2677 135.332 74.9482Z" fill="#A0616A"/>
<path d="M140.333 61.7571C138.332 63.1362 135.957 63.8701 133.526 63.8604C134.393 64.4614 135.38 64.8674 136.419 65.0504C133.188 65.7434 129.848 65.7622 126.609 65.1055C125.889 64.9901 125.194 64.7515 124.555 64.4002C124.237 64.2225 123.96 63.9796 123.741 63.6876C123.523 63.3956 123.368 63.0609 123.288 62.7052C123.073 61.4758 124.031 60.3589 125.026 59.6062C126.551 58.4712 128.309 57.6893 130.172 57.3169C132.036 56.9446 133.959 56.9911 135.803 57.453C137.007 57.7642 138.213 58.2898 138.995 59.2564C139.777 60.223 140.008 61.7132 139.263 62.7086L140.333 61.7571Z" fill="#2F2E41"/>
<path d="M131.668 41.1992C126.408 41.1984 121.292 42.9171 117.1 46.0932C112.908 49.2692 109.87 53.7286 108.448 58.7916C107.026 63.8545 107.299 69.2434 109.225 74.1369C111.151 79.0304 114.625 83.1601 119.116 85.8966L119.271 85.9877C119.4 86.0654 119.529 86.1404 119.657 86.2127C119.874 86.3413 120.091 86.4646 120.314 86.5825C120.464 86.6601 120.614 86.7405 120.764 86.8155C122.438 87.6698 124.207 88.3227 126.035 88.7606C126.413 88.8517 126.791 88.9348 127.177 89.0045C128.657 89.2849 130.161 89.4257 131.668 89.4251C132.048 89.4251 132.426 89.4171 132.804 89.3983C133.334 89.3742 133.86 89.3322 134.379 89.2724C135.009 89.2027 135.631 89.1081 136.245 88.9884C137.484 88.7498 138.702 88.4139 139.889 87.9837C140.039 87.9274 140.189 87.8711 140.336 87.8149C140.741 87.6595 141.138 87.4934 141.529 87.3166C141.958 87.1236 142.38 86.9182 142.796 86.7003C146.968 84.516 150.416 81.1683 152.722 77.0632C152.732 77.0418 152.746 77.0203 152.757 76.9989C153.987 74.7916 154.86 72.4034 155.343 69.9231C156.02 66.4314 155.918 62.833 155.042 59.3856C154.166 55.9382 152.539 52.7271 150.276 49.9822C148.014 47.2373 145.172 45.0265 141.955 43.5081C138.738 41.9897 135.225 41.2012 131.668 41.1992ZM152.317 76.6854C152.296 76.7229 152.277 76.7604 152.256 76.7953C149.996 80.8398 146.596 84.1306 142.48 86.2583C142.07 86.4726 141.653 86.6735 141.229 86.8611C140.878 87.0192 140.519 87.1692 140.157 87.3085C140.004 87.3675 139.849 87.4264 139.693 87.48C138.668 87.8543 137.618 88.1552 136.55 88.3802C135.758 88.5488 134.957 88.6749 134.152 88.758C133.656 88.8116 133.152 88.8491 132.646 88.8678C132.321 88.8812 131.995 88.8893 131.668 88.8893C130.209 88.891 128.754 88.7555 127.321 88.4847C126.45 88.3239 125.588 88.1128 124.741 87.8524C123.45 87.4537 122.196 86.9455 120.992 86.3333C120.852 86.2609 120.713 86.1886 120.576 86.1136C120.381 86.0091 120.183 85.9019 119.99 85.7867C119.845 85.7063 119.7 85.6206 119.558 85.5349C119.475 85.4867 119.392 85.4357 119.309 85.3848C115.371 82.9669 112.23 79.4463 110.275 75.2597C108.32 71.073 107.638 66.4047 108.312 61.8338C108.987 57.2629 110.989 52.9906 114.07 49.547C117.151 46.1033 121.175 43.6398 125.644 42.4621C130.112 41.2844 134.828 41.4444 139.207 42.9221C143.585 44.3998 147.433 47.1303 150.274 50.7747C153.114 54.4192 154.822 58.8173 155.185 63.4234C155.549 68.0295 154.551 72.6409 152.317 76.6854Z" fill="#3F3D56"/>
<path d="M126.244 51.565C126.117 50.2339 124.486 49.4145 123.211 49.8165C121.936 50.2186 121.098 51.5025 120.845 52.8154C120.723 53.3683 120.712 53.9398 120.812 54.4971C120.911 55.0545 121.12 55.5867 121.425 56.0632C122.07 56.9909 123.255 57.5698 124.36 57.3343C125.621 57.0655 126.495 55.834 126.745 54.5691C126.995 53.3041 126.747 51.9999 126.499 50.7345L126.244 51.565Z" fill="#2F2E41"/>
<path d="M144.193 53.4663C144.066 52.1353 142.435 51.3158 141.16 51.7179C139.885 52.12 139.047 53.4039 138.794 54.7168C138.672 55.2697 138.661 55.8412 138.761 56.3985C138.86 56.9559 139.069 57.488 139.374 57.9646C140.019 58.8922 141.204 59.4711 142.309 59.2356C143.57 58.9668 144.444 57.7354 144.694 56.4704C144.944 55.2054 144.696 53.9012 144.448 52.6358L144.193 53.4663Z" fill="#2F2E41"/>
<path d="M89.9816 74.9488C89.8148 74.9486 89.6498 74.9137 89.4972 74.8461C89.3446 74.7785 89.2078 74.6799 89.0955 74.5565L75.7984 60.053C75.6476 59.8888 75.4642 59.7576 75.2601 59.6678C75.0559 59.578 74.8354 59.5315 74.6124 59.5313H4.34603C3.2797 59.5301 2.25738 59.106 1.50337 58.3521C0.749361 57.5982 0.325233 56.5761 0.324036 55.51V30.1746C0.325232 29.1085 0.749361 28.0863 1.50337 27.3325C2.25738 26.5786 3.2797 26.1545 4.34603 26.1533H95.3813C96.4477 26.1545 97.47 26.5786 98.224 27.3325C98.978 28.0863 99.4021 29.1085 99.4033 30.1746V55.51C99.4021 56.5761 98.978 57.5983 98.224 58.3521C97.47 59.106 96.4477 59.5301 95.3813 59.5313H92.8004C92.3738 59.5318 91.9648 59.7014 91.6632 60.003C91.3615 60.3046 91.1919 60.7136 91.1914 61.1401V73.7413C91.1924 73.9846 91.1194 74.2224 90.982 74.4232C90.8447 74.624 90.6494 74.7782 90.4223 74.8655C90.2819 74.9204 90.1324 74.9487 89.9816 74.9488Z" fill="white"/>
<path d="M89.9816 74.9488C89.8148 74.9486 89.6498 74.9137 89.4972 74.8461C89.3446 74.7785 89.2078 74.6799 89.0955 74.5565L75.7984 60.053C75.6476 59.8888 75.4642 59.7576 75.2601 59.6678C75.0559 59.578 74.8354 59.5315 74.6124 59.5313H4.34603C3.2797 59.5301 2.25738 59.106 1.50337 58.3521C0.749361 57.5982 0.325233 56.5761 0.324036 55.51V30.1746C0.325232 29.1085 0.749361 28.0863 1.50337 27.3325C2.25738 26.5786 3.2797 26.1545 4.34603 26.1533H95.3813C96.4477 26.1545 97.47 26.5786 98.224 27.3325C98.978 28.0863 99.4021 29.1085 99.4033 30.1746V55.51C99.4021 56.5761 98.978 57.5983 98.224 58.3521C97.47 59.106 96.4477 59.5301 95.3813 59.5313H92.8004C92.3738 59.5318 91.9648 59.7014 91.6632 60.003C91.3615 60.3046 91.1919 60.7136 91.1914 61.1401V73.7413C91.1924 73.9846 91.1194 74.2224 90.982 74.4232C90.8447 74.624 90.6494 74.7782 90.4223 74.8655C90.2819 74.9204 90.1324 74.9487 89.9816 74.9488ZM4.34603 26.6892C3.42179 26.6902 2.5357 27.0578 1.88216 27.7112C1.22863 28.3646 0.861014 29.2505 0.859971 30.1746V55.51C0.861015 56.434 1.22863 57.32 1.88217 57.9734C2.53571 58.6268 3.42179 58.9944 4.34603 58.9954H74.6124C74.9097 58.9958 75.2037 59.0577 75.4758 59.1774C75.748 59.2971 75.9923 59.472 76.1935 59.6909L89.4906 74.1943C89.5819 74.2939 89.7011 74.3636 89.8327 74.3942C89.9643 74.4249 90.102 74.4151 90.228 74.3661C90.3539 74.3172 90.4621 74.2313 90.5383 74.1198C90.6146 74.0083 90.6554 73.8764 90.6555 73.7413V61.1401C90.6561 60.5715 90.8823 60.0264 91.2844 59.6243C91.6865 59.2222 92.2317 58.9961 92.8004 58.9954H95.3813C96.3056 58.9944 97.1916 58.6268 97.8452 57.9734C98.4987 57.32 98.8663 56.434 98.8674 55.51V30.1746C98.8663 29.2505 98.4987 28.3646 97.8452 27.7112C97.1917 27.0578 96.3056 26.6902 95.3813 26.6892H4.34603Z" fill="#3F3D56"/>
<path d="M10.1895 37.3296C12.1332 37.3296 13.7089 35.7542 13.7089 33.8108C13.7089 31.8674 12.1332 30.292 10.1895 30.292C8.2458 30.292 6.6701 31.8674 6.6701 33.8108C6.6701 35.7542 8.2458 37.3296 10.1895 37.3296Z" fill="#D36466"/>
<path d="M91.2754 53.2817H8.45201C8.20533 53.282 7.96101 53.2337 7.73302 53.1395C7.50504 53.0453 7.29785 52.9071 7.12331 52.7328C6.94878 52.5585 6.81032 52.3516 6.71585 52.1237C6.62138 51.8959 6.57275 51.6517 6.57275 51.405C6.57275 51.1584 6.62138 50.9142 6.71585 50.6863C6.81032 50.4585 6.94878 50.2515 7.12331 50.0772C7.29785 49.9029 7.50504 49.7647 7.73302 49.6705C7.96101 49.5764 8.20533 49.528 8.45201 49.5283H91.2754C91.7728 49.5289 92.2496 49.7269 92.6012 50.0788C92.9527 50.4307 93.1501 50.9077 93.1501 51.405C93.1501 51.9024 92.9527 52.3794 92.6012 52.7312C92.2496 53.0831 91.7728 53.2811 91.2754 53.2817Z" fill="#E6E6E6"/>
<path d="M64.2933 45.3052H8.45201C8.20533 45.3054 7.96101 45.2571 7.73302 45.1629C7.50504 45.0688 7.29785 44.9306 7.12331 44.7563C6.94878 44.582 6.81032 44.375 6.71585 44.1472C6.62138 43.9193 6.57275 43.6751 6.57275 43.4285C6.57275 43.1818 6.62138 42.9376 6.71585 42.7098C6.81032 42.4819 6.94878 42.2749 7.12331 42.1006C7.29785 41.9263 7.50504 41.7882 7.73302 41.694C7.96101 41.5998 8.20533 41.5515 8.45201 41.5518H64.2933C64.7911 41.5518 65.2685 41.7495 65.6205 42.1014C65.9725 42.4534 66.1703 42.9307 66.1703 43.4285C66.1703 43.9262 65.9725 44.4035 65.6205 44.7555C65.2685 45.1074 64.7911 45.3052 64.2933 45.3052Z" fill="#E6E6E6"/>
<path d="M149.064 160.868C148.837 160.781 148.641 160.627 148.504 160.426C148.367 160.225 148.294 159.988 148.295 159.744V147.143C148.294 146.716 148.125 146.308 147.823 146.006C147.521 145.704 147.112 145.535 146.686 145.534H144.105C143.038 145.533 142.016 145.109 141.262 144.355C140.508 143.601 140.084 142.579 140.083 141.513V116.178C140.084 115.111 140.508 114.089 141.262 113.335C142.016 112.581 143.038 112.157 144.105 112.156H235.14C236.206 112.157 237.229 112.581 237.983 113.335C238.737 114.089 239.161 115.111 239.162 116.178V141.513C239.161 142.579 238.737 143.601 237.983 144.355C237.229 145.109 236.206 145.533 235.14 145.534H164.874C164.651 145.534 164.43 145.581 164.226 145.671C164.022 145.761 163.839 145.892 163.688 146.056L150.391 160.559C150.278 160.683 150.141 160.781 149.989 160.849C149.836 160.917 149.671 160.952 149.504 160.952C149.354 160.952 149.204 160.923 149.064 160.868Z" fill="white"/>
<path d="M149.064 160.868C148.837 160.781 148.641 160.627 148.504 160.426C148.367 160.225 148.294 159.988 148.295 159.744V147.143C148.294 146.716 148.125 146.308 147.823 146.006C147.521 145.704 147.112 145.535 146.686 145.534H144.105C143.038 145.533 142.016 145.109 141.262 144.355C140.508 143.601 140.084 142.579 140.083 141.513V116.178C140.084 115.111 140.508 114.089 141.262 113.335C142.016 112.581 143.038 112.157 144.105 112.156H235.14C236.206 112.157 237.229 112.581 237.983 113.335C238.737 114.089 239.161 115.111 239.162 116.178V141.513C239.161 142.579 238.737 143.601 237.983 144.355C237.229 145.109 236.206 145.533 235.14 145.534H164.874C164.651 145.534 164.43 145.581 164.226 145.671C164.022 145.761 163.839 145.892 163.688 146.056L150.391 160.559C150.278 160.683 150.141 160.781 149.989 160.849C149.836 160.917 149.671 160.952 149.504 160.952C149.354 160.952 149.204 160.923 149.064 160.868ZM144.105 112.692C143.181 112.693 142.294 113.061 141.641 113.714C140.987 114.368 140.62 115.253 140.619 116.178V141.513C140.62 142.437 140.987 143.323 141.641 143.976C142.294 144.63 143.181 144.997 144.105 144.998H146.686C147.254 144.999 147.8 145.225 148.202 145.627C148.604 146.029 148.83 146.574 148.831 147.143V159.744C148.831 159.879 148.871 160.011 148.948 160.123C149.024 160.234 149.132 160.32 149.258 160.369C149.384 160.418 149.522 160.428 149.653 160.397C149.785 160.367 149.904 160.297 149.996 160.197L163.293 145.694C163.494 145.475 163.738 145.3 164.01 145.18C164.282 145.061 164.576 144.999 164.874 144.998H235.14C236.064 144.997 236.95 144.63 237.604 143.976C238.257 143.323 238.625 142.437 238.626 141.513V116.178C238.625 115.253 238.257 114.368 237.604 113.714C236.95 113.061 236.064 112.693 235.14 112.692H144.105Z" fill="#3F3D56"/>
<path d="M120.689 168.714C116.956 171.104 112.631 172.407 108.198 172.478C103.766 172.548 99.4011 171.383 95.5938 169.113C96.2635 167.867 97.1122 166.725 98.1127 165.724C99.6565 164.173 101.535 162.997 103.605 162.285C105.674 161.573 107.88 161.346 110.051 161.619C112.222 161.893 114.302 162.66 116.13 163.863C117.959 165.065 119.487 166.671 120.598 168.556C120.627 168.607 120.659 168.66 120.689 168.714Z" fill="#D36466"/>
<path d="M107.094 155.902C113.635 155.902 118.938 150.6 118.938 144.059C118.938 137.519 113.635 132.217 107.094 132.217C100.552 132.217 95.2491 137.519 95.2491 144.059C95.2491 150.6 100.552 155.902 107.094 155.902Z" fill="#2F2E41"/>
<path d="M115.907 152.412C118.242 148.141 116.672 142.785 112.4 140.45C108.128 138.115 102.772 139.685 100.436 143.956C98.1012 148.228 99.6712 153.583 103.943 155.918C108.215 158.253 113.572 156.683 115.907 152.412Z" fill="#FFB8B8"/>
<path d="M98.9086 142.64C100.923 144.028 103.314 144.767 105.761 144.757C104.888 145.362 103.895 145.771 102.849 145.955C106.102 146.653 109.464 146.672 112.724 146.01C113.449 145.894 114.148 145.654 114.791 145.301C115.112 145.122 115.391 144.877 115.611 144.583C115.831 144.289 115.986 143.952 116.067 143.594C116.284 142.357 115.32 141.232 114.317 140.475C112.783 139.332 111.013 138.545 109.137 138.17C107.261 137.795 105.325 137.842 103.469 138.307C102.257 138.62 101.043 139.15 100.256 140.123C99.469 141.096 99.2358 142.596 99.9857 143.598L98.9086 142.64Z" fill="#2F2E41"/>
<path d="M107.818 172.748C102.018 172.746 96.4119 170.653 92.0296 166.853C87.6473 163.053 84.7822 157.801 83.9598 152.06C83.1375 146.318 84.4131 140.473 87.5526 135.596C90.6922 130.719 95.4851 127.138 101.052 125.508C106.62 123.879 112.588 124.311 117.862 126.725C123.136 129.139 127.363 133.374 129.767 138.652C132.172 143.93 132.592 149.898 130.951 155.461C129.31 161.024 125.718 165.809 120.834 168.939C116.95 171.429 112.432 172.751 107.818 172.748ZM107.818 125.058C103.154 125.058 98.594 126.44 94.7154 129.031C90.8368 131.622 87.8137 135.304 86.0285 139.613C84.2432 143.922 83.776 148.663 84.6859 153.237C85.5958 157.811 87.8419 162.013 91.1403 165.31C94.4386 168.608 98.641 170.854 103.216 171.764C107.791 172.673 112.533 172.206 116.842 170.421C121.152 168.636 124.835 165.614 127.426 161.736C130.017 157.858 131.4 153.299 131.4 148.635C131.393 142.384 128.906 136.391 124.485 131.971C120.064 127.551 114.07 125.065 107.818 125.058Z" fill="#3F3D56"/>
<path d="M151.408 123.064C153.352 123.064 154.928 121.489 154.928 119.545C154.928 117.602 153.352 116.026 151.408 116.026C149.465 116.026 147.889 117.602 147.889 119.545C147.889 121.489 149.465 123.064 151.408 123.064Z" fill="#D36466"/>
<path d="M232.494 139.016H149.671C149.424 139.016 149.18 138.968 148.952 138.874C148.724 138.78 148.517 138.642 148.342 138.467C148.168 138.293 148.029 138.086 147.935 137.858C147.84 137.63 147.792 137.386 147.792 137.139C147.792 136.893 147.84 136.649 147.935 136.421C148.029 136.193 148.168 135.986 148.342 135.812C148.517 135.637 148.724 135.499 148.952 135.405C149.18 135.311 149.424 135.262 149.671 135.263H232.494C232.992 135.263 233.469 135.46 233.821 135.812C234.173 136.164 234.371 136.642 234.371 137.139C234.371 137.637 234.173 138.114 233.821 138.466C233.469 138.818 232.992 139.016 232.494 139.016Z" fill="#E6E6E6"/>
<path d="M205.512 131.041H149.671C149.424 131.041 149.18 130.992 148.952 130.898C148.724 130.804 148.517 130.666 148.342 130.492C148.168 130.317 148.029 130.11 147.935 129.883C147.84 129.655 147.792 129.41 147.792 129.164C147.792 128.917 147.84 128.673 147.935 128.445C148.029 128.217 148.168 128.01 148.342 127.836C148.517 127.662 148.724 127.524 148.952 127.429C149.18 127.335 149.424 127.287 149.671 127.287H205.512C206.009 127.288 206.486 127.486 206.838 127.838C207.189 128.189 207.387 128.666 207.387 129.164C207.387 129.661 207.189 130.138 206.838 130.49C206.486 130.842 206.009 131.04 205.512 131.041Z" fill="#E6E6E6"/>
<path d="M148.95 163.267C152.577 163.267 155.517 162.941 155.517 162.538C155.517 162.136 152.577 161.81 148.95 161.81C145.324 161.81 142.384 162.136 142.384 162.538C142.384 162.941 145.324 163.267 148.95 163.267Z" fill="#F2F2F2"/>
<path d="M90.2655 77.5315C93.892 77.5315 96.8318 77.2053 96.8318 76.8029C96.8318 76.4004 93.892 76.0742 90.2655 76.0742C86.6391 76.0742 83.6993 76.4004 83.6993 76.8029C83.6993 77.2053 86.6391 77.5315 90.2655 77.5315Z" fill="#F2F2F2"/>
</g>
<defs>
<clipPath id="clip0_74_944">
<rect width="238.838" height="199.654" fill="white" transform="translate(0.324036 0.268555)"/>
</clipPath>
</defs>
</svg>
